<svg width="117" height="25" viewBox="0 0 117 25" fill="none" xmlns="http://www.w3.org/2000/svg">
<path d="M27.7624 17.8321L25.0269 8.63653C24.9548 8.39956 24.8775 8.22956 24.7951 8.12653C24.7127 8.01319 24.5684 7.91016 24.3624 7.81744L24.1769 7.74016V7.58561H28.2724V7.74016L27.9478 7.8638C27.7109 7.95653 27.5512 8.06986 27.4688 8.2038C27.3863 8.33774 27.3812 8.5232 27.4533 8.76017L29.1379 15.1893L30.9615 9.79564L30.6061 8.69835C30.5339 8.48199 30.467 8.31714 30.4051 8.2038C30.3433 8.09047 30.2403 7.99774 30.0961 7.92562L29.756 7.74016V7.58561H33.6352V7.74016L33.1561 7.92562C32.95 7.99774 32.8315 8.10592 32.8006 8.25017C32.78 8.38411 32.8058 8.55926 32.8779 8.77563L34.8406 15.3439L36.6952 8.89926C36.7673 8.65199 36.7931 8.43562 36.7725 8.25017C36.7519 8.06471 36.6231 7.93077 36.3861 7.84834L36.0616 7.74016V7.58561H38.2098V7.74016L37.8079 7.89471C37.6019 7.96683 37.4576 8.08017 37.3752 8.23471C37.2928 8.38926 37.2207 8.57987 37.1588 8.80654L34.5934 17.8321H33.527L31.2088 10.5684L28.8288 17.8321H27.7624ZM40.4692 18.0175C39.6861 18.0175 39.0061 17.8578 38.4292 17.5384C37.8522 17.2087 37.404 16.7451 37.0846 16.1475C36.7755 15.5499 36.621 14.8493 36.621 14.0457C36.621 13.242 36.7858 12.5466 37.1155 11.9593C37.4555 11.372 37.914 10.9187 38.491 10.5993C39.0782 10.2799 39.7376 10.1202 40.4692 10.1202C41.2007 10.1202 41.8549 10.2799 42.4319 10.5993C43.0089 10.9084 43.4622 11.3566 43.7919 11.9438C44.1319 12.5311 44.3019 13.2317 44.3019 14.0457C44.3019 14.8596 44.1422 15.5654 43.8228 16.163C43.5137 16.7502 43.0707 17.2087 42.4937 17.5384C41.9271 17.8578 41.2522 18.0175 40.4692 18.0175ZM40.4692 17.7084C40.8298 17.7084 41.1183 17.6054 41.3346 17.3993C41.551 17.1933 41.7055 16.8275 41.7983 16.3021C41.9013 15.7766 41.9528 15.0348 41.9528 14.0766C41.9528 13.1081 41.9013 12.3611 41.7983 11.8357C41.7055 11.3102 41.551 10.9444 41.3346 10.7384C41.1183 10.5323 40.8298 10.4293 40.4692 10.4293C40.1086 10.4293 39.8149 10.5323 39.5883 10.7384C39.3719 10.9444 39.2122 11.3102 39.1092 11.8357C39.0164 12.3611 38.9701 13.1081 38.9701 14.0766C38.9701 15.0348 39.0164 15.7766 39.1092 16.3021C39.2122 16.8275 39.3719 17.1933 39.5883 17.3993C39.8149 17.6054 40.1086 17.7084 40.4692 17.7084ZM48.3631 18.0175C47.5801 18.0175 46.9001 17.8578 46.3231 17.5384C45.7461 17.2087 45.298 16.7451 44.9786 16.1475C44.6695 15.5499 44.5149 14.8493 44.5149 14.0457C44.5149 13.242 44.6798 12.5466 45.0095 11.9593C45.3495 11.372 45.808 10.9187 46.3849 10.5993C46.9722 10.2799 47.6316 10.1202 48.3631 10.1202C49.0947 10.1202 49.7489 10.2799 50.3259 10.5993C50.9029 10.9084 51.3562 11.3566 51.6859 11.9438C52.0259 12.5311 52.1959 13.2317 52.1959 14.0457C52.1959 14.8596 52.0362 15.5654 51.7168 16.163C51.4077 16.7502 50.9647 17.2087 50.3877 17.5384C49.821 17.8578 49.1462 18.0175 48.3631 18.0175ZM48.3631 17.7084C48.7237 17.7084 49.0122 17.6054 49.2286 17.3993C49.445 17.1933 49.5995 16.8275 49.6922 16.3021C49.7953 15.7766 49.8468 15.0348 49.8468 14.0766C49.8468 13.1081 49.7953 12.3611 49.6922 11.8357C49.5995 11.3102 49.445 10.9444 49.2286 10.7384C49.0122 10.5323 48.7237 10.4293 48.3631 10.4293C48.0025 10.4293 47.7089 10.5323 47.4822 10.7384C47.2659 10.9444 47.1062 11.3102 47.0031 11.8357C46.9104 12.3611 46.864 13.1081 46.864 14.0766C46.864 15.0348 46.9104 15.7766 47.0031 16.3021C47.1062 16.8275 47.2659 17.1933 47.4822 17.3993C47.7089 17.6054 48.0025 17.7084 48.3631 17.7084ZM55.6235 18.0175C55.0156 18.0175 54.4695 17.8836 53.9853 17.6157C53.501 17.3375 53.1147 16.9151 52.8262 16.3484C52.548 15.7715 52.4089 15.0348 52.4089 14.1384C52.4089 13.2317 52.5686 12.4848 52.888 11.8975C53.2074 11.2999 53.6298 10.8569 54.1553 10.5684C54.6807 10.2696 55.2525 10.1202 55.8707 10.1202C56.2313 10.1202 56.5765 10.1562 56.9062 10.2284C57.2359 10.3005 57.5295 10.4087 57.7871 10.5529V8.54381C57.7871 8.32744 57.7511 8.16774 57.6789 8.06471C57.6171 7.96168 57.478 7.88956 57.2617 7.84834L56.968 7.78653V7.63198L59.7808 6.95197L59.9508 7.09106L59.889 9.25472V16.8121C59.889 17.0181 59.925 17.1881 59.9971 17.3221C60.0693 17.4457 60.2032 17.5333 60.399 17.5848L60.5381 17.6312V17.7857L57.8953 17.9557L57.7562 17.3993C57.478 17.5848 57.1586 17.7342 56.798 17.8475C56.4477 17.9609 56.0562 18.0175 55.6235 18.0175ZM56.5198 17.4457C56.9526 17.4457 57.3492 17.3169 57.7098 17.0593V10.9238C57.3286 10.6766 56.9371 10.5529 56.5353 10.5529C56.0407 10.5529 55.6183 10.8414 55.268 11.4184C54.9177 11.9851 54.7425 12.8814 54.7425 14.1075C54.7425 15.3336 54.9074 16.199 55.2371 16.7039C55.5668 17.1984 55.9944 17.4457 56.5198 17.4457ZM64.4824 10.1202C65.1521 10.1202 65.7239 10.2593 66.1979 10.5375C66.6718 10.8053 67.0324 11.1763 67.2797 11.6502C67.5373 12.1138 67.6661 12.6445 67.6661 13.242C67.6661 13.3554 67.6609 13.4739 67.6506 13.5975C67.6403 13.7108 67.6197 13.8139 67.5888 13.9066H62.9833C62.9936 15.0193 63.1893 15.823 63.5706 16.3175C63.9621 16.8018 64.5391 17.0439 65.3015 17.0439C65.8166 17.0439 66.2339 16.9615 66.5533 16.7966C66.8727 16.6318 67.1715 16.3896 67.4497 16.0702L67.6042 16.2093C67.2848 16.776 66.8573 17.219 66.3215 17.5384C65.796 17.8578 65.1624 18.0175 64.4206 18.0175C63.689 18.0175 63.0399 17.863 62.4733 17.5539C61.9066 17.2345 61.4636 16.7812 61.1442 16.1939C60.8248 15.6066 60.6651 14.906 60.6651 14.092C60.6651 13.2472 60.8505 12.5311 61.2214 11.9438C61.5924 11.3463 62.0663 10.8929 62.6433 10.5838C63.2306 10.2747 63.8436 10.1202 64.4824 10.1202ZM64.436 10.4293C64.1372 10.4293 63.8797 10.522 63.6633 10.7075C63.4572 10.8826 63.2924 11.202 63.1687 11.6657C63.0554 12.119 62.9936 12.7629 62.9833 13.5975H65.626C65.7291 12.4744 65.6879 11.6657 65.5024 11.1711C65.3169 10.6766 64.9615 10.4293 64.436 10.4293ZM67.8181 17.7857V17.6312L68.0344 17.5693C68.395 17.4663 68.5753 17.2139 68.5753 16.8121V11.9747C68.5753 11.7481 68.5393 11.5832 68.4672 11.4802C68.395 11.3669 68.2559 11.2896 68.0499 11.2484L67.8181 11.1866V11.032L70.4608 10.1356L70.6154 10.2902L70.739 11.2175C71.0996 10.8981 71.5066 10.6353 71.9599 10.4293C72.4133 10.2232 72.8614 10.1202 73.3045 10.1202C73.9845 10.1202 74.5048 10.3056 74.8654 10.6766C75.2363 11.0475 75.4218 11.6141 75.4218 12.3766V16.8275C75.4218 17.2293 75.6175 17.4818 76.0091 17.5848L76.1481 17.6312V17.7857H72.5008V17.6312L72.7017 17.5693C73.0624 17.456 73.2427 17.2036 73.2427 16.8121V11.882C73.2427 11.2226 72.913 10.8929 72.2536 10.8929C71.8002 10.8929 71.3057 11.1196 70.7699 11.5729V16.8275C70.7699 17.2293 70.9502 17.4818 71.3108 17.5848L71.4499 17.6312V17.7857H67.8181ZM76.181 17.7857V17.6312L76.3664 17.5693C76.7374 17.4457 76.9228 17.1881 76.9228 16.7966V8.52835C76.9228 8.32229 76.8816 8.16774 76.7992 8.06471C76.7167 7.95138 76.5725 7.86895 76.3664 7.81744L76.1655 7.77107V7.61652L78.9937 6.95197L79.1792 7.09106L79.1174 9.25472V14.5402C79.1174 14.9214 79.1174 15.3027 79.1174 15.6839C79.1277 16.0548 79.1328 16.4257 79.1328 16.7966C79.1328 17.0027 79.174 17.1727 79.2565 17.3066C79.3389 17.4303 79.478 17.523 79.6737 17.5848L79.8747 17.6312V17.7857H76.181ZM83.8486 18.0175C83.0655 18.0175 82.3855 17.8578 81.8085 17.5384C81.2316 17.2087 80.7834 16.7451 80.464 16.1475C80.1549 15.5499 80.0003 14.8493 80.0003 14.0457C80.0003 13.242 80.1652 12.5466 80.4949 11.9593C80.8349 11.372 81.2934 10.9187 81.8704 10.5993C82.4576 10.2799 83.117 10.1202 83.8486 10.1202C84.5801 10.1202 85.2343 10.2799 85.8113 10.5993C86.3883 10.9084 86.8416 11.3566 87.1713 11.9438C87.5113 12.5311 87.6813 13.2317 87.6813 14.0457C87.6813 14.8596 87.5216 15.5654 87.2022 16.163C86.8931 16.7502 86.4501 17.2087 85.8731 17.5384C85.3065 17.8578 84.6316 18.0175 83.8486 18.0175ZM83.8486 17.7084C84.2092 17.7084 84.4977 17.6054 84.714 17.3993C84.9304 17.1933 85.0849 16.8275 85.1777 16.3021C85.2807 15.7766 85.3322 15.0348 85.3322 14.0766C85.3322 13.1081 85.2807 12.3611 85.1777 11.8357C85.0849 11.3102 84.9304 10.9444 84.714 10.7384C84.4977 10.5323 84.2092 10.4293 83.8486 10.4293C83.488 10.4293 83.1943 10.5323 82.9676 10.7384C82.7513 10.9444 82.5916 11.3102 82.4886 11.8357C82.3958 12.3611 82.3495 13.1081 82.3495 14.0766C82.3495 15.0348 82.3958 15.7766 82.4886 16.3021C82.5916 16.8275 82.7513 17.1933 82.9676 17.3993C83.1943 17.6054 83.488 17.7084 83.8486 17.7084ZM90.3243 17.9866L87.7125 17.7857V17.6312L87.867 17.6003C88.2688 17.5075 88.4698 17.25 88.4698 16.8275V8.55926C88.4698 8.34289 88.4337 8.17804 88.3616 8.06471C88.2998 7.95138 88.1658 7.8741 87.9598 7.83289L87.7434 7.77107V7.61652L90.4943 6.95197L90.6798 7.09106L90.618 9.27018V10.8311C90.958 10.5941 91.3289 10.419 91.7307 10.3056C92.1325 10.182 92.5395 10.1202 92.9516 10.1202C93.5389 10.1202 94.0592 10.2593 94.5125 10.5375C94.9659 10.8053 95.3213 11.2278 95.5789 11.8047C95.8468 12.3714 95.9807 13.1029 95.9807 13.9993C95.9807 14.8957 95.8313 15.6427 95.5326 16.2402C95.2441 16.8275 94.8525 17.2706 94.358 17.5693C93.8737 17.8681 93.338 18.0175 92.7507 18.0175C92.3695 18.0175 91.9831 17.966 91.5916 17.863C91.2104 17.76 90.8704 17.6157 90.5716 17.4303L90.3243 17.9866ZM91.978 17.4921C92.3077 17.4921 92.5962 17.389 92.8434 17.183C93.0907 16.9769 93.2865 16.6266 93.4307 16.1321C93.575 15.6272 93.6471 14.9369 93.6471 14.0611C93.6471 13.1854 93.5801 12.5105 93.4462 12.0366C93.3122 11.5626 93.1216 11.2329 92.8743 11.0475C92.6374 10.862 92.3489 10.7693 92.0089 10.7693C91.5246 10.7693 91.0764 10.9032 90.6643 11.1711V17.1057C90.8601 17.2293 91.061 17.3272 91.2671 17.3993C91.4731 17.4612 91.7101 17.4921 91.978 17.4921ZM98.6258 17.9866L96.0139 17.7857V17.6312L96.1685 17.6003C96.5703 17.5075 96.7712 17.25 96.7712 16.8275V8.55926C96.7712 8.34289 96.7352 8.17804 96.663 8.06471C96.6012 7.95138 96.4673 7.8741 96.2612 7.83289L96.0448 7.77107V7.61652L98.7958 6.95197L98.9812 7.09106L98.9194 9.27018V10.8311C99.2594 10.5941 99.6303 10.419 100.032 10.3056C100.434 10.182 100.841 10.1202 101.253 10.1202C101.84 10.1202 102.361 10.2593 102.814 10.5375C103.267 10.8053 103.623 11.2278 103.88 11.8047C104.148 12.3714 104.282 13.1029 104.282 13.9993C104.282 14.8957 104.133 15.6427 103.834 16.2402C103.546 16.8275 103.154 17.2706 102.659 17.5693C102.175 17.8681 101.639 18.0175 101.052 18.0175C100.671 18.0175 100.285 17.966 99.8931 17.863C99.5119 17.76 99.1718 17.6157 98.8731 17.4303L98.6258 17.9866ZM100.279 17.4921C100.609 17.4921 100.898 17.389 101.145 17.183C101.392 16.9769 101.588 16.6266 101.732 16.1321C101.876 15.6272 101.949 14.9369 101.949 14.0611C101.949 13.1854 101.882 12.5105 101.748 12.0366C101.614 11.5626 101.423 11.2329 101.176 11.0475C100.939 10.862 100.65 10.7693 100.31 10.7693C99.8261 10.7693 99.3779 10.9032 98.9658 11.1711V17.1057C99.1615 17.2293 99.3625 17.3272 99.5685 17.3993C99.7746 17.4612 100.012 17.4921 100.279 17.4921ZM105.616 21.4948C105.204 21.4948 104.874 21.3918 104.627 21.1857C104.39 20.9797 104.271 20.717 104.271 20.3976C104.271 20.1091 104.374 19.8772 104.58 19.7021C104.786 19.5269 105.018 19.4394 105.276 19.4394C105.533 19.4394 105.75 19.4909 105.925 19.5939C106.1 19.7072 106.255 19.8669 106.389 20.073L106.497 20.1966C106.723 20.5057 106.95 20.5006 107.177 20.1812C107.269 20.0266 107.372 19.8206 107.486 19.563C107.609 19.3157 107.749 18.9809 107.903 18.5584L104.905 11.3875C104.833 11.1917 104.755 11.0372 104.673 10.9238C104.591 10.8002 104.457 10.6972 104.271 10.6147L103.993 10.5066V10.352H107.841V10.4911L107.532 10.6147C107.305 10.6869 107.187 10.8053 107.177 10.9702C107.177 11.1247 107.218 11.3205 107.3 11.5575L108.908 15.7302L110.438 11.5111C110.52 11.2741 110.551 11.0784 110.53 10.9238C110.51 10.759 110.381 10.6456 110.144 10.5838L109.819 10.5066V10.352H111.968V10.5066L111.628 10.6147C111.391 10.6869 111.226 10.7899 111.133 10.9238C111.04 11.0578 110.953 11.2432 110.87 11.4802L108.382 18.2648C107.98 19.3466 107.579 20.1554 107.177 20.6912C106.775 21.227 106.255 21.4948 105.616 21.4948Z" fill="#1B1207"/>
<g clip-path="url(#clip0_1950_15606)">
<circle cx="11.8061" cy="12.5" r="9.22449" fill="#B28A5A"/>
<path d="M11.5933 6.99039C11.7653 6.82761 12.0345 6.82585 12.2085 6.98649L14.4566 9.06266C14.5487 9.14781 14.601 9.26728 14.6011 9.39274V14.0539C14.6011 14.18 14.5485 14.3007 14.4556 14.3859L12.4175 16.2541C12.3911 16.2784 12.3898 16.3199 12.4146 16.3459L13.4937 17.4709C13.5219 17.5001 13.5692 17.4965 13.5923 17.4631L18.0884 10.924C18.1172 10.8814 18.0863 10.8234 18.0347 10.8234H15.3091C15.2027 10.8234 15.1159 10.7374 15.1158 10.631C15.1158 10.5245 15.2026 10.4377 15.3091 10.4377H18.0347C18.3971 10.4377 18.611 10.8441 18.4058 11.1427L13.9107 17.6818C13.749 17.9169 13.4118 17.9444 13.2144 17.7384L12.1363 16.6125C12.1197 16.5952 12.1065 16.5758 12.0933 16.5568V17.8966C12.0933 18.003 12.0072 18.0898 11.9009 18.09C11.7944 18.09 11.7076 18.0032 11.7076 17.8966V16.6261L10.5816 17.7531C10.3842 17.9505 10.056 17.9226 9.89505 17.6945L5.27689 11.1476C5.06656 10.8494 5.28015 10.4377 5.64505 10.4377H8.55716C8.66356 10.4378 8.74954 10.5246 8.74954 10.631C8.74938 10.7373 8.66346 10.8232 8.55716 10.8234H5.64505C5.59294 10.8234 5.56233 10.8824 5.59232 10.925L10.2105 17.4718C10.2334 17.5043 10.2799 17.5086 10.3081 17.4806L11.4458 16.3429C11.4716 16.3171 11.4707 16.2749 11.4439 16.2502L9.4097 14.3859C9.3169 14.3007 9.26419 14.1799 9.26419 14.0539V9.39079C9.26424 9.26733 9.31524 9.14957 9.40482 9.06461L11.5933 6.99039ZM12.0933 12.925V16.0412C12.1114 16.0157 12.1328 15.9919 12.1568 15.9699L14.1949 14.1017C14.2081 14.0895 14.2154 14.0719 14.2154 14.0539V11.6183L12.0933 12.925ZM9.64993 14.0539C9.64993 14.0718 9.65729 14.0896 9.67044 14.1017L11.7046 15.966C11.7056 15.9669 11.7065 15.968 11.7076 15.9689V14.5197L9.64993 12.9494V14.0539ZM9.64993 12.464L11.7076 14.0353V11.6261L9.64993 10.0558V12.464ZM11.9468 7.27067C11.922 7.24778 11.8835 7.24759 11.8589 7.27067L9.67044 9.34391C9.65767 9.35601 9.64998 9.37319 9.64993 9.39079V9.57047L11.7076 11.1408V10.2453C11.7076 10.1387 11.7944 10.0519 11.9009 10.0519C12.0072 10.0522 12.0933 10.1389 12.0933 10.2453V12.4709L14.2154 11.1652V9.39274C14.2153 9.37489 14.208 9.35799 14.1949 9.34586L11.9468 7.27067Z" fill="white"/>
</g>
<defs>
<clipPath id="clip0_1950_15606">
<rect width="18.449" height="18.449" fill="white" transform="translate(2.58163 3.27551)"/>
</clipPath>
</defs>
</svg>
