<svg xmlns="http://www.w3.org/2000/svg" version="1.1" xmlns:xlink="http://www.w3.org/1999/xlink" width="113" height="113"><svg width="113" height="113" viewBox="0 0 113 113" fill="none" xmlns="http://www.w3.org/2000/svg">
<g clip-path="url(#clip0_1072_41550)">
<circle cx="57" cy="57" r="57" fill="black"></circle>
<path fill-rule="evenodd" clip-rule="evenodd" d="M57.3288 24.7293C57.1765 24.5887 56.9412 24.5903 56.7907 24.7328L43.3855 37.4326C43.307 37.5069 43.2625 37.6103 43.2625 37.7185V38.8197L55.8655 48.4378V42.9488C55.8655 42.2962 56.3946 41.7672 57.0471 41.7672C57.6997 41.7672 58.2287 42.2962 58.2287 42.9488V50.8098C58.2289 50.8212 58.2289 50.8325 58.2287 50.8439V56.5888L71.2267 48.5901V37.7306C71.2267 37.6207 71.1807 37.5158 71.1 37.4412L57.3288 24.7293ZM40.8993 57.0918V39.4383C40.8986 39.4149 40.8986 39.3914 40.8993 39.368V37.7185C40.8993 36.9614 41.2106 36.2377 41.7602 35.717L55.1655 23.0173C56.2189 22.0193 57.8654 22.0087 58.9317 22.9929L72.7028 35.7047C73.2683 36.2267 73.5898 36.9611 73.5898 37.7306V66.2813C73.5898 67.0541 73.2655 67.7914 72.6958 68.3137L60.215 79.7543C60.0522 79.9036 60.044 80.1577 60.1968 80.3172L66.802 87.2095C66.9747 87.3898 67.2694 87.3659 67.4109 87.1601L94.945 47.1105C95.1247 46.8492 94.9376 46.4935 94.6204 46.4935H77.9223C77.2697 46.4935 76.7407 45.9645 76.7407 45.3119C76.7407 44.6594 77.2697 44.1304 77.9223 44.1304H94.6204C96.8403 44.1304 98.15 46.62 96.8923 48.4493L69.3582 88.4989C68.3681 89.9391 66.305 90.1064 65.0958 88.8446L58.4906 81.9523C58.3942 81.8516 58.3069 81.7456 58.2287 81.6352V89.8183C58.2287 90.4709 57.6997 90.9999 57.0471 90.9999C56.3946 90.9999 55.8655 90.4709 55.8655 89.8183V82.0372L48.9657 88.937C47.7564 90.1464 45.7491 89.9742 44.7633 88.5766L16.4784 48.4765C15.1901 46.6501 16.4963 44.1304 18.7313 44.1304H36.5668C37.2194 44.1304 37.7484 44.6594 37.7484 45.3119C37.7484 45.9645 37.2194 46.4935 36.5668 46.4935H18.7313C18.412 46.4935 18.2254 46.8535 18.4095 47.1144L46.6944 87.2145C46.8352 87.4141 47.1219 87.4387 47.2947 87.266L54.2609 80.2998C54.4195 80.1412 54.4139 79.8825 54.2486 79.7309L41.7933 68.3137C41.2237 67.7914 40.8993 67.0541 40.8993 66.2813V57.1621C40.8986 57.1387 40.8986 57.1152 40.8993 57.0918ZM43.2625 59.5162V66.2813C43.2625 66.3917 43.3088 66.497 43.3902 66.5716L55.8454 77.9889L55.8655 78.0075V69.1344L43.2625 59.5162ZM55.8655 66.1616L43.2625 56.5435V41.7924L55.8655 51.4106V66.1616ZM58.2287 68.5677C58.2289 68.5563 58.2289 68.545 58.2287 68.5336V59.3636L71.2267 51.3649V66.2813C71.2267 66.3917 71.1803 66.497 71.0989 66.5716L58.6182 78.0123C58.4701 78.1481 58.3402 78.2963 58.2287 78.4538V68.5677Z" fill="white"></path>
</g>
<defs>
<clipPath id="SvgjsClipPath1001">
<rect width="113" height="113" fill="white"></rect>
</clipPath>
</defs>
</svg><style>@media (prefers-color-scheme: light) { :root { filter: none; } }
@media (prefers-color-scheme: dark) { :root { filter: none; } }
</style></svg>